<?xml version="1.0" encoding="UTF-8"?>
<svg height="600" width="800" xmlns="http://www.w3.org/2000/svg" xmlns:xlink="http://www.w3.org/1999/xlink">
    <g id="Notes" font-family="LucidaGrande, 'Lucida Grande', sans-serif" font-size="13">
        <rect fill="white" height="600.0" width="800.0" x="0.0" y="0.0" />
        <g font-size="13">
            <text x="18.0" y="176.0">Small</text>
            <text x="18.0" y="376.0">Medium</text>
            <text x="18.0" y="576.0">Large</text>
        </g>
        <g font-size="9">
            <text x="250.0" y="30.0">Ultralight</text>
            <text x="450.0" y="30.0">Regular</text>
            <text x="650.0" y="30.0">Black</text>
            <text id="template-version" fill="#505050" text-anchor="end" x="785.0" y="575.0">Template v.3.0</text>
            <a href="https://github.com/swhitty/SwiftDraw">
                <text fill="#505050" text-anchor="end" x="785.0" y="590.0">https://github.com/swhitty/SwiftDraw</text>
            </a>
        </g>
    </g>
    <g id="Guides" stroke="rgb(39, 170, 225)" stroke-width="0.5">
        <path id="Capline-S" d="M18,76 l800,0" />
        <path id="H-reference" d="M85,145.755 L87.685,145.755 L113.369,79.287 L114.052,79.287 L114.052,76 L112.148,76 L85,145.755 Z M95.693,121.536 L130.996,121.536 L130.263,119.313 L96.474,119.313 L95.693,121.536 Z M139.15,145.755 L141.787,145.755 L114.638,76 L113.466,76 L113.466,79.287 L139.15,145.755 Z" stroke="none" transform="translate(0,200)" />
        <path id="Baseline-S" d="M18,146 l800,0" />
        <path id="left-margin-Ultralight-M" d="M226.635,256 l0,110" />
        <path id="right-margin-Ultralight-M" d="M303.365,256 l0,110" />
        <path id="left-margin-Regular-M" d="M426.635,256 l0,110" />
        <path id="right-margin-Regular-M" d="M503.365,256 l0,110" />
        <path id="left-margin-Black-M" d="M626.635,256 l0,110" />
        <path id="right-margin-Black-M" d="M703.365,256 l0,110" />
        <path id="Capline-M" d="M18,276 l800,0" />
        <path id="Baseline-M" d="M18,346 l800,0" />
        <path id="Capline-L" d="M18,476 l800,0" />
        <path id="Baseline-L" d="M18,546 l800,0" />
    </g>
    <g id="Symbols">
        <g id="Ultralight-M" transform="translate(0,200)">
            <path d="M287.844,133.844 C275.227,146.46 254.773,146.46 242.156,133.844 L287.844,88.156 C300.46,100.773 300.46,121.227 287.844,133.844 Z" />
            <path d="M289.749,86.251 C276.08,72.583 253.92,72.583 240.251,86.251 C226.583,99.92 226.583,122.08 240.251,135.749 C253.92,149.417 276.08,149.417 289.749,135.749 C303.417,122.08 303.417,99.92 289.749,86.251 Z M244.061,90.057 C254.895,79.247 272.178,78.463 283.947,88.247 L242.244,129.95 C232.444,118.183 233.232,100.885 244.061,90.057 Z M285.939,131.943 C275.104,142.749 257.823,143.534 246.053,133.753 L287.756,92.05 C297.556,103.817 296.768,121.115 285.939,131.943 Z" />
        </g>
        <g id="Regular-M" transform="translate(0,200)">
            <path d="M487.844,133.844 C475.227,146.46 454.773,146.46 442.156,133.844 L487.844,88.156 C500.46,100.773 500.46,121.227 487.844,133.844 Z" />
            <path d="M489.749,86.251 C476.08,72.583 453.92,72.583 440.251,86.251 C426.583,99.92 426.583,122.08 440.251,135.749 C453.92,149.417 476.08,149.417 489.749,135.749 C503.417,122.08 503.417,99.92 489.749,86.251 Z M444.061,90.057 C454.895,79.247 472.178,78.463 483.947,88.247 L442.244,129.95 C432.444,118.183 433.232,100.885 444.061,90.057 Z M485.939,131.943 C475.104,142.749 457.823,143.534 446.053,133.753 L487.756,92.05 C497.556,103.817 496.768,121.115 485.939,131.943 Z" />
        </g>
        <g id="Black-M" transform="translate(0,200)">
            <path d="M687.844,133.844 C675.227,146.46 654.773,146.46 642.156,133.844 L687.844,88.156 C700.46,100.773 700.46,121.227 687.844,133.844 Z" />
            <path d="M689.749,86.251 C676.08,72.583 653.92,72.583 640.251,86.251 C626.583,99.92 626.583,122.08 640.251,135.749 C653.92,149.417 676.08,149.417 689.749,135.749 C703.417,122.08 703.417,99.92 689.749,86.251 Z M644.061,90.057 C654.895,79.247 672.178,78.463 683.947,88.247 L642.244,129.95 C632.444,118.183 633.232,100.885 644.061,90.057 Z M685.939,131.943 C675.104,142.749 657.823,143.534 646.053,133.753 L687.756,92.05 C697.556,103.817 696.768,121.115 685.939,131.943 Z" />
        </g>
    </g>
</svg>