<?xml version="1.0" encoding="UTF-8"?>
<svg height="600" width="800" xmlns="http://www.w3.org/2000/svg" xmlns:xlink="http://www.w3.org/1999/xlink">
    <g id="Notes" font-family="LucidaGrande, 'Lucida Grande', sans-serif" font-size="13">
        <rect fill="white" height="600.0" width="800.0" x="0.0" y="0.0" />
        <g font-size="13">
            <text x="18.0" y="176.0">Small</text>
            <text x="18.0" y="376.0">Medium</text>
            <text x="18.0" y="576.0">Large</text>
        </g>
        <g font-size="9">
            <text x="250.0" y="30.0">Ultralight</text>
            <text x="450.0" y="30.0">Regular</text>
            <text x="650.0" y="30.0">Black</text>
            <text id="template-version" fill="#505050" text-anchor="end" x="785.0" y="575.0">Template v.3.0</text>
            <a href="https://github.com/swhitty/SwiftDraw">
                <text fill="#505050" text-anchor="end" x="785.0" y="590.0">https://github.com/swhitty/SwiftDraw</text>
            </a>
        </g>
    </g>
    <g id="Guides" stroke="rgb(39, 170, 225)" stroke-width="0.5">
        <path id="Capline-S" d="M18,76 l800,0" />
        <path id="H-reference" d="M85,145.755 L87.685,145.755 L113.369,79.287 L114.052,79.287 L114.052,76 L112.148,76 L85,145.755 Z M95.693,121.536 L130.996,121.536 L130.263,119.313 L96.474,119.313 L95.693,121.536 Z M139.15,145.755 L141.787,145.755 L114.638,76 L113.466,76 L113.466,79.287 L139.15,145.755 Z" stroke="none" transform="translate(0,0)" />
        <path id="Baseline-S" d="M18,146 l800,0" />
        <path id="left-margin-Ultralight-S" d="M221,56 l0,110" />
        <path id="right-margin-Ultralight-S" d="M309,56 l0,110" />
        <path id="left-margin-Regular-S" d="M421,56 l0,110" />
        <path id="right-margin-Regular-S" d="M509,56 l0,110" />
        <path id="left-margin-Black-S" d="M621,56 l0,110" />
        <path id="right-margin-Black-S" d="M709,56 l0,110" />
        <path id="Capline-M" d="M18,276 l800,0" />
        <path id="Baseline-M" d="M18,346 l800,0" />
        <path id="Capline-L" d="M18,476 l800,0" />
        <path id="Baseline-L" d="M18,546 l800,0" />
    </g>
    <g id="Symbols">
        <g id="Ultralight-S" transform="translate(0,0)">
            <path d="M298.965,80.123 L231.035,80.123 C229.397,80.123 227.827,80.773 226.668,81.932 C225.51,83.09 224.86,84.66 224.86,86.298 L224.86,135.702 C224.86,137.34 225.51,138.91 226.668,140.068 C227.827,141.227 229.397,141.877 231.035,141.877 L298.965,141.877 C300.603,141.877 302.173,141.227 303.332,140.068 C304.49,138.91 305.14,137.34 305.14,135.702 L305.14,86.298 C305.14,84.66 304.49,83.09 303.332,81.932 C302.173,80.773 300.603,80.123 298.965,80.123 Z M255.737,117.175 L255.737,104.825 L274.263,104.825 L274.263,117.175 Z M274.263,123.351 L274.263,135.702 L255.737,135.702 L255.737,123.351 Z M231.035,104.825 L249.561,104.825 L249.561,117.175 L231.035,117.175 Z M255.737,98.649 L255.737,86.298 L274.263,86.298 L274.263,98.649 Z M280.439,104.825 L298.965,104.825 L298.965,117.175 L280.439,117.175 Z M298.965,98.649 L280.439,98.649 L280.439,86.298 L298.965,86.298 Z M249.561,86.298 L249.561,98.649 L231.035,98.649 L231.035,86.298 Z M231.035,123.351 L249.561,123.351 L249.561,135.702 L231.035,135.702 Z M298.965,135.702 L280.439,135.702 L280.439,123.351 L298.965,123.351 L298.965,135.702 Z" />
        </g>
        <g id="Regular-S" transform="translate(0,0)">
            <path d="M498.965,80.123 L431.035,80.123 C429.397,80.123 427.827,80.773 426.668,81.932 C425.51,83.09 424.86,84.66 424.86,86.298 L424.86,135.702 C424.86,137.34 425.51,138.91 426.668,140.068 C427.827,141.227 429.397,141.877 431.035,141.877 L498.965,141.877 C500.603,141.877 502.173,141.227 503.332,140.068 C504.49,138.91 505.14,137.34 505.14,135.702 L505.14,86.298 C505.14,84.66 504.49,83.09 503.332,81.932 C502.173,80.773 500.603,80.123 498.965,80.123 Z M455.737,117.175 L455.737,104.825 L474.263,104.825 L474.263,117.175 Z M474.263,123.351 L474.263,135.702 L455.737,135.702 L455.737,123.351 Z M431.035,104.825 L449.561,104.825 L449.561,117.175 L431.035,117.175 Z M455.737,98.649 L455.737,86.298 L474.263,86.298 L474.263,98.649 Z M480.439,104.825 L498.965,104.825 L498.965,117.175 L480.439,117.175 Z M498.965,98.649 L480.439,98.649 L480.439,86.298 L498.965,86.298 Z M449.561,86.298 L449.561,98.649 L431.035,98.649 L431.035,86.298 Z M431.035,123.351 L449.561,123.351 L449.561,135.702 L431.035,135.702 Z M498.965,135.702 L480.439,135.702 L480.439,123.351 L498.965,123.351 L498.965,135.702 Z" />
        </g>
        <g id="Black-S" transform="translate(0,0)">
            <path d="M698.965,80.123 L631.035,80.123 C629.397,80.123 627.827,80.773 626.668,81.932 C625.51,83.09 624.86,84.66 624.86,86.298 L624.86,135.702 C624.86,137.34 625.51,138.91 626.668,140.068 C627.827,141.227 629.397,141.877 631.035,141.877 L698.965,141.877 C700.603,141.877 702.173,141.227 703.332,140.068 C704.49,138.91 705.14,137.34 705.14,135.702 L705.14,86.298 C705.14,84.66 704.49,83.09 703.332,81.932 C702.173,80.773 700.603,80.123 698.965,80.123 Z M655.737,117.175 L655.737,104.825 L674.263,104.825 L674.263,117.175 Z M674.263,123.351 L674.263,135.702 L655.737,135.702 L655.737,123.351 Z M631.035,104.825 L649.561,104.825 L649.561,117.175 L631.035,117.175 Z M655.737,98.649 L655.737,86.298 L674.263,86.298 L674.263,98.649 Z M680.439,104.825 L698.965,104.825 L698.965,117.175 L680.439,117.175 Z M698.965,98.649 L680.439,98.649 L680.439,86.298 L698.965,86.298 Z M649.561,86.298 L649.561,98.649 L631.035,98.649 L631.035,86.298 Z M631.035,123.351 L649.561,123.351 L649.561,135.702 L631.035,135.702 Z M698.965,135.702 L680.439,135.702 L680.439,123.351 L698.965,123.351 L698.965,135.702 Z" />
        </g>
    </g>
</svg>