<?xml version="1.0" encoding="UTF-8"?>
<svg height="600" width="800" xmlns="http://www.w3.org/2000/svg" xmlns:xlink="http://www.w3.org/1999/xlink">
    <g id="Notes" font-family="LucidaGrande, 'Lucida Grande', sans-serif" font-size="13">
        <rect fill="white" height="600.0" width="800.0" x="0.0" y="0.0" />
        <g font-size="13">
            <text x="18.0" y="176.0">Small</text>
            <text x="18.0" y="376.0">Medium</text>
            <text x="18.0" y="576.0">Large</text>
        </g>
        <g font-size="9">
            <text x="250.0" y="30.0">Ultralight</text>
            <text x="450.0" y="30.0">Regular</text>
            <text x="650.0" y="30.0">Black</text>
            <text id="template-version" fill="#505050" text-anchor="end" x="785.0" y="575.0">Template v.3.0</text>
            <a href="https://github.com/swhitty/SwiftDraw">
                <text fill="#505050" text-anchor="end" x="785.0" y="590.0">https://github.com/swhitty/SwiftDraw</text>
            </a>
        </g>
    </g>
    <g id="Guides" stroke="rgb(39, 170, 225)" stroke-width="0.5">
        <path id="Capline-S" d="M18,76 l800,0" />
        <path id="H-reference" d="M85,145.755 L87.685,145.755 L113.369,79.287 L114.052,79.287 L114.052,76 L112.148,76 L85,145.755 Z M95.693,121.536 L130.996,121.536 L130.263,119.313 L96.474,119.313 L95.693,121.536 Z M139.15,145.755 L141.787,145.755 L114.638,76 L113.466,76 L113.466,79.287 L139.15,145.755 Z" stroke="none" transform="translate(0,0)" />
        <path id="Baseline-S" d="M18,146 l800,0" />
        <path id="left-margin-Ultralight-S" d="M223.438,56 l0,110" />
        <path id="right-margin-Ultralight-S" d="M306.562,56 l0,110" />
        <path id="left-margin-Regular-S" d="M423.438,56 l0,110" />
        <path id="right-margin-Regular-S" d="M506.562,56 l0,110" />
        <path id="left-margin-Black-S" d="M623.438,56 l0,110" />
        <path id="right-margin-Black-S" d="M706.562,56 l0,110" />
        <path id="Capline-M" d="M18,276 l800,0" />
        <path id="Baseline-M" d="M18,346 l800,0" />
        <path id="Capline-L" d="M18,476 l800,0" />
        <path id="Baseline-L" d="M18,546 l800,0" />
    </g>
    <g id="Symbols">
        <g id="Ultralight-S" transform="translate(0,0)">
            <path d="M301.794,82.45 C301.086,81.898 300.163,81.703 299.293,81.921 L277.006,87.492 L254.639,76.307 C254.015,75.996 253.302,75.918 252.626,76.088 L229.293,81.921 C227.995,82.246 227.084,83.412 227.084,84.75 L227.084,137.25 C227.084,138.148 227.497,138.996 228.205,139.548 C228.913,140.101 229.836,140.297 230.707,140.079 L252.994,134.509 L275.361,145.694 C275.767,145.894 276.214,145.999 276.667,146 C276.905,146 277.143,145.97 277.374,145.913 L300.707,140.079 C302.005,139.755 302.916,138.588 302.916,137.25 L302.916,84.75 C302.916,83.851 302.502,83.002 301.793,82.449 Z M253.333,128.5 C253.095,128.5 252.857,128.53 252.626,128.588 L232.917,133.513 L232.917,87.029 L252.994,82.009 L253.333,82.176 Z M297.083,134.971 L277.006,139.992 L276.667,139.824 L276.667,93.5 C276.905,93.501 277.142,93.473 277.374,93.416 L297.083,88.487 Z" />
        </g>
        <g id="Regular-S" transform="translate(0,0)">
            <path d="M501.794,82.45 C501.086,81.898 500.163,81.703 499.293,81.921 L477.006,87.492 L454.639,76.307 C454.015,75.996 453.302,75.918 452.626,76.088 L429.293,81.921 C427.995,82.246 427.084,83.412 427.084,84.75 L427.084,137.25 C427.084,138.148 427.497,138.996 428.205,139.548 C428.913,140.101 429.836,140.297 430.707,140.079 L452.994,134.509 L475.361,145.694 C475.767,145.894 476.214,145.999 476.667,146 C476.905,146 477.143,145.97 477.374,145.913 L500.707,140.079 C502.005,139.755 502.916,138.588 502.916,137.25 L502.916,84.75 C502.916,83.851 502.502,83.002 501.793,82.449 Z M453.333,128.5 C453.095,128.5 452.857,128.53 452.626,128.588 L432.917,133.513 L432.917,87.029 L452.994,82.009 L453.333,82.176 Z M497.083,134.971 L477.006,139.992 L476.667,139.824 L476.667,93.5 C476.905,93.501 477.142,93.473 477.374,93.416 L497.083,88.487 Z" />
        </g>
        <g id="Black-S" transform="translate(0,0)">
            <path d="M701.794,82.45 C701.086,81.898 700.163,81.703 699.293,81.921 L677.006,87.492 L654.639,76.307 C654.015,75.996 653.302,75.918 652.626,76.088 L629.293,81.921 C627.995,82.246 627.084,83.412 627.084,84.75 L627.084,137.25 C627.084,138.148 627.497,138.996 628.205,139.548 C628.913,140.101 629.836,140.297 630.707,140.079 L652.994,134.509 L675.361,145.694 C675.767,145.894 676.214,145.999 676.667,146 C676.905,146 677.143,145.97 677.374,145.913 L700.707,140.079 C702.005,139.755 702.916,138.588 702.916,137.25 L702.916,84.75 C702.916,83.851 702.502,83.002 701.793,82.449 Z M653.333,128.5 C653.095,128.5 652.857,128.53 652.626,128.588 L632.917,133.513 L632.917,87.029 L652.994,82.009 L653.333,82.176 Z M697.083,134.971 L677.006,139.992 L676.667,139.824 L676.667,93.5 C676.905,93.501 677.142,93.473 677.374,93.416 L697.083,88.487 Z" />
        </g>
    </g>
</svg>