<?xml version="1.0" encoding="UTF-8"?>
<svg height="600" width="800" xmlns="http://www.w3.org/2000/svg" xmlns:xlink="http://www.w3.org/1999/xlink">
    <g id="Notes" font-family="LucidaGrande, 'Lucida Grande', sans-serif" font-size="13">
        <rect fill="white" height="600.0" width="800.0" x="0.0" y="0.0" />
        <g font-size="13">
            <text x="18.0" y="176.0">Small</text>
            <text x="18.0" y="376.0">Medium</text>
            <text x="18.0" y="576.0">Large</text>
        </g>
        <g font-size="9">
            <text x="250.0" y="30.0">Ultralight</text>
            <text x="450.0" y="30.0">Regular</text>
            <text x="650.0" y="30.0">Black</text>
            <text id="template-version" fill="#505050" text-anchor="end" x="785.0" y="575.0">Template v.3.0</text>
            <a href="https://github.com/swhitty/SwiftDraw">
                <text fill="#505050" text-anchor="end" x="785.0" y="590.0">https://github.com/swhitty/SwiftDraw</text>
            </a>
        </g>
    </g>
    <g id="Guides" stroke="rgb(39, 170, 225)" stroke-width="0.5">
        <path id="Capline-S" d="M18,76 l800,0" />
        <path id="H-reference" d="M85,145.755 L87.685,145.755 L113.369,79.287 L114.052,79.287 L114.052,76 L112.148,76 L85,145.755 Z M95.693,121.536 L130.996,121.536 L130.263,119.313 L96.474,119.313 L95.693,121.536 Z M139.15,145.755 L141.787,145.755 L114.638,76 L113.466,76 L113.466,79.287 L139.15,145.755 Z" stroke="none" transform="translate(0,0)" />
        <path id="Baseline-S" d="M18,146 l800,0" />
        <path id="left-margin-Ultralight-S" d="M221,56 l0,110" />
        <path id="right-margin-Ultralight-S" d="M309,56 l0,110" />
        <path id="left-margin-Regular-S" d="M421,56 l0,110" />
        <path id="right-margin-Regular-S" d="M509,56 l0,110" />
        <path id="left-margin-Black-S" d="M621,56 l0,110" />
        <path id="right-margin-Black-S" d="M709,56 l0,110" />
        <path id="Capline-M" d="M18,276 l800,0" />
        <path id="Baseline-M" d="M18,346 l800,0" />
        <path id="Capline-L" d="M18,476 l800,0" />
        <path id="Baseline-L" d="M18,546 l800,0" />
    </g>
    <g id="Symbols">
        <g id="Ultralight-S" transform="translate(0,0)">
            <path d="M304.063,87.664 L252.864,138.863 C252.264,139.464 251.45,139.801 250.6,139.801 C249.751,139.801 248.937,139.464 248.336,138.863 L225.937,116.463 C224.687,115.213 224.688,113.186 225.938,111.936 C227.188,110.686 229.214,110.686 230.465,111.935 L250.6,132.075 L299.535,83.136 C300.786,81.886 302.812,81.887 304.062,83.137 C305.312,84.387 305.313,86.413 304.063,87.664 Z" />
        </g>
        <g id="Regular-S" transform="translate(0,0)">
            <path d="M504.063,87.664 L452.864,138.863 C452.264,139.464 451.45,139.801 450.6,139.801 C449.751,139.801 448.937,139.464 448.336,138.863 L425.937,116.463 C424.687,115.213 424.688,113.186 425.938,111.936 C427.188,110.686 429.214,110.686 430.465,111.935 L450.6,132.075 L499.535,83.136 C500.786,81.886 502.812,81.887 504.062,83.137 C505.312,84.387 505.313,86.413 504.063,87.664 Z" />
        </g>
        <g id="Black-S" transform="translate(0,0)">
            <path d="M704.063,87.664 L652.864,138.863 C652.264,139.464 651.45,139.801 650.6,139.801 C649.751,139.801 648.937,139.464 648.336,138.863 L625.937,116.463 C624.687,115.213 624.688,113.186 625.938,111.936 C627.188,110.686 629.214,110.686 630.465,111.935 L650.6,132.075 L699.535,83.136 C700.786,81.886 702.812,81.887 704.062,83.137 C705.312,84.387 705.313,86.413 704.063,87.664 Z" />
        </g>
    </g>
</svg>