<?xml version="1.0" encoding="UTF-8"?>
<svg height="600" width="800" xmlns="http://www.w3.org/2000/svg" xmlns:xlink="http://www.w3.org/1999/xlink">
    <g id="Notes" font-family="LucidaGrande, 'Lucida Grande', sans-serif" font-size="13">
        <rect fill="white" height="600.0" width="800.0" x="0.0" y="0.0" />
        <g font-size="13">
            <text x="18.0" y="176.0">Small</text>
            <text x="18.0" y="376.0">Medium</text>
            <text x="18.0" y="576.0">Large</text>
        </g>
        <g font-size="9">
            <text x="250.0" y="30.0">Ultralight</text>
            <text x="450.0" y="30.0">Regular</text>
            <text x="650.0" y="30.0">Black</text>
            <text id="template-version" fill="#505050" text-anchor="end" x="785.0" y="575.0">Template v.3.0</text>
            <a href="https://github.com/swhitty/SwiftDraw">
                <text fill="#505050" text-anchor="end" x="785.0" y="590.0">https://github.com/swhitty/SwiftDraw</text>
            </a>
        </g>
    </g>
    <g id="Guides" stroke="rgb(39, 170, 225)" stroke-width="0.5">
        <path id="Capline-S" d="M18,76 l800,0" />
        <path id="H-reference" d="M85,145.755 L87.685,145.755 L113.369,79.287 L114.052,79.287 L114.052,76 L112.148,76 L85,145.755 Z M95.693,121.536 L130.996,121.536 L130.263,119.313 L96.474,119.313 L95.693,121.536 Z M139.15,145.755 L141.787,145.755 L114.638,76 L113.466,76 L113.466,79.287 L139.15,145.755 Z" stroke="none" transform="translate(0,200)" />
        <path id="Baseline-S" d="M18,146 l800,0" />
        <path id="left-margin-Ultralight-M" d="M226.637,256 l0,110" />
        <path id="right-margin-Ultralight-M" d="M303.363,256 l0,110" />
        <path id="left-margin-Regular-M" d="M426.637,256 l0,110" />
        <path id="right-margin-Regular-M" d="M503.363,256 l0,110" />
        <path id="left-margin-Black-M" d="M626.637,256 l0,110" />
        <path id="right-margin-Black-M" d="M703.363,256 l0,110" />
        <path id="Capline-M" d="M18,276 l800,0" />
        <path id="Baseline-M" d="M18,346 l800,0" />
        <path id="Capline-L" d="M18,476 l800,0" />
        <path id="Baseline-L" d="M18,546 l800,0" />
    </g>
    <g id="Symbols">
        <g id="Ultralight-M" transform="translate(0,200)">
            <path d="M265.01,76 C252.719,75.997 241.327,82.442 234.999,92.979 C228.67,103.516 228.333,116.601 234.109,127.45 L230.29,138.909 C229.644,140.844 230.148,142.977 231.59,144.42 C233.033,145.862 235.166,146.366 237.101,145.72 L248.56,141.901 C261.418,148.739 277.167,146.901 288.105,137.286 C299.043,127.67 302.883,112.286 297.747,98.658 C292.612,85.03 279.574,76.006 265.01,76 Z M250.203,115.038 C247.972,115.038 246.164,113.23 246.164,111 C246.164,108.769 247.972,106.961 250.203,106.961 C252.433,106.961 254.241,108.769 254.241,111 C254.241,112.071 253.816,113.098 253.058,113.855 C252.301,114.613 251.274,115.038 250.203,115.038 Z M265.01,115.038 C262.78,115.038 260.972,113.23 260.972,111 C260.972,108.769 262.78,106.961 265.01,106.961 C267.241,106.961 269.049,108.769 269.049,111 C269.049,112.071 268.623,113.098 267.866,113.855 C267.108,114.613 266.081,115.038 265.01,115.038 Z M279.818,115.038 C277.587,115.038 275.779,113.23 275.779,111 C275.779,108.769 277.587,106.961 279.818,106.961 C282.048,106.961 283.856,108.769 283.856,111 C283.856,112.071 283.431,113.098 282.673,113.855 C281.916,114.613 280.889,115.038 279.818,115.038 Z" />
        </g>
        <g id="Regular-M" transform="translate(0,200)">
            <path d="M465.01,76 C452.719,75.997 441.327,82.442 434.999,92.979 C428.67,103.516 428.333,116.601 434.109,127.45 L430.29,138.909 C429.644,140.844 430.148,142.977 431.59,144.42 C433.033,145.862 435.166,146.366 437.101,145.72 L448.56,141.901 C461.418,148.739 477.167,146.901 488.105,137.286 C499.043,127.67 502.883,112.286 497.747,98.658 C492.612,85.03 479.574,76.006 465.01,76 Z M450.203,115.038 C447.972,115.038 446.164,113.23 446.164,111 C446.164,108.769 447.972,106.961 450.203,106.961 C452.433,106.961 454.241,108.769 454.241,111 C454.241,112.071 453.816,113.098 453.058,113.855 C452.301,114.613 451.274,115.038 450.203,115.038 Z M465.01,115.038 C462.78,115.038 460.972,113.23 460.972,111 C460.972,108.769 462.78,106.961 465.01,106.961 C467.241,106.961 469.049,108.769 469.049,111 C469.049,112.071 468.623,113.098 467.866,113.855 C467.108,114.613 466.081,115.038 465.01,115.038 Z M479.818,115.038 C477.587,115.038 475.779,113.23 475.779,111 C475.779,108.769 477.587,106.961 479.818,106.961 C482.048,106.961 483.856,108.769 483.856,111 C483.856,112.071 483.431,113.098 482.673,113.855 C481.916,114.613 480.889,115.038 479.818,115.038 Z" />
        </g>
        <g id="Black-M" transform="translate(0,200)">
            <path d="M665.01,76 C652.719,75.997 641.327,82.442 634.999,92.979 C628.67,103.516 628.333,116.601 634.109,127.45 L630.29,138.909 C629.644,140.844 630.148,142.977 631.59,144.42 C633.033,145.862 635.166,146.366 637.101,145.72 L648.56,141.901 C661.418,148.739 677.167,146.901 688.105,137.286 C699.043,127.67 702.883,112.286 697.747,98.658 C692.612,85.03 679.574,76.006 665.01,76 Z M650.203,115.038 C647.972,115.038 646.164,113.23 646.164,111 C646.164,108.769 647.972,106.961 650.203,106.961 C652.433,106.961 654.241,108.769 654.241,111 C654.241,112.071 653.816,113.098 653.058,113.855 C652.301,114.613 651.274,115.038 650.203,115.038 Z M665.01,115.038 C662.78,115.038 660.972,113.23 660.972,111 C660.972,108.769 662.78,106.961 665.01,106.961 C667.241,106.961 669.049,108.769 669.049,111 C669.049,112.071 668.623,113.098 667.866,113.855 C667.108,114.613 666.081,115.038 665.01,115.038 Z M679.818,115.038 C677.587,115.038 675.779,113.23 675.779,111 C675.779,108.769 677.587,106.961 679.818,106.961 C682.048,106.961 683.856,108.769 683.856,111 C683.856,112.071 683.431,113.098 682.673,113.855 C681.916,114.613 680.889,115.038 679.818,115.038 Z" />
        </g>
    </g>
</svg>