<?xml version="1.0" encoding="UTF-8"?>
<svg height="600" width="800" xmlns="http://www.w3.org/2000/svg" xmlns:xlink="http://www.w3.org/1999/xlink">
    <g id="Notes" font-family="LucidaGrande, 'Lucida Grande', sans-serif" font-size="13">
        <rect fill="white" height="600.0" width="800.0" x="0.0" y="0.0" />
        <g font-size="13">
            <text x="18.0" y="176.0">Small</text>
            <text x="18.0" y="376.0">Medium</text>
            <text x="18.0" y="576.0">Large</text>
        </g>
        <g font-size="9">
            <text x="250.0" y="30.0">Ultralight</text>
            <text x="450.0" y="30.0">Regular</text>
            <text x="650.0" y="30.0">Black</text>
            <text id="template-version" fill="#505050" text-anchor="end" x="785.0" y="575.0">Template v.3.0</text>
            <a href="https://github.com/swhitty/SwiftDraw">
                <text fill="#505050" text-anchor="end" x="785.0" y="590.0">https://github.com/swhitty/SwiftDraw</text>
            </a>
        </g>
    </g>
    <g id="Guides" stroke="rgb(39, 170, 225)" stroke-width="0.5">
        <path id="Capline-S" d="M18,76 l800,0" />
        <path id="H-reference" d="M85,145.755 L87.685,145.755 L113.369,79.287 L114.052,79.287 L114.052,76 L112.148,76 L85,145.755 Z M95.693,121.536 L130.996,121.536 L130.263,119.313 L96.474,119.313 L95.693,121.536 Z M139.15,145.755 L141.787,145.755 L114.638,76 L113.466,76 L113.466,79.287 L139.15,145.755 Z" stroke="none" transform="translate(0,200)" />
        <path id="Baseline-S" d="M18,146 l800,0" />
        <path id="left-margin-Ultralight-M" d="M222.819,256 l0,110" />
        <path id="right-margin-Ultralight-M" d="M307.181,256 l0,110" />
        <path id="left-margin-Regular-M" d="M422.819,256 l0,110" />
        <path id="right-margin-Regular-M" d="M507.181,256 l0,110" />
        <path id="left-margin-Black-M" d="M622.819,256 l0,110" />
        <path id="right-margin-Black-M" d="M707.181,256 l0,110" />
        <path id="Capline-M" d="M18,276 l800,0" />
        <path id="Baseline-M" d="M18,346 l800,0" />
        <path id="Capline-L" d="M18,476 l800,0" />
        <path id="Baseline-L" d="M18,546 l800,0" />
    </g>
    <g id="Symbols">
        <g id="Ultralight-M" transform="translate(0,200)">
            <path d="M271.364,88.728 C271.364,81.699 277.063,76 284.092,76 C291.121,76 296.82,81.699 296.82,88.728 C296.82,95.757 291.121,101.456 284.092,101.456 C280.716,101.456 277.479,100.115 275.092,97.728 C272.705,95.341 271.364,92.104 271.364,88.728 Z M297.969,133.352 C285.309,143.848 276.602,139.123 266.519,133.646 C255.935,127.902 243.943,121.391 227.966,134.636 C227.081,135.359 226.651,136.501 226.841,137.628 C227.031,138.755 227.81,139.694 228.883,140.087 C229.956,140.481 231.157,140.269 232.031,139.533 C244.691,129.036 253.398,133.765 263.481,139.238 C269.491,142.5 275.95,146 283.34,146 C288.964,146 295.13,143.967 302.035,138.244 C303.387,137.121 303.574,135.115 302.451,133.762 C301.329,132.409 299.322,132.222 297.969,133.344 Z M227.966,118.73 C227.081,119.453 226.651,120.595 226.841,121.722 C227.031,122.849 227.81,123.788 228.883,124.181 C229.956,124.575 231.157,124.363 232.031,123.627 C244.691,113.134 253.398,117.859 263.481,123.332 C269.491,126.594 275.95,130.094 283.34,130.094 C288.964,130.094 295.13,128.061 302.034,122.338 C302.919,121.615 303.349,120.473 303.159,119.346 C302.969,118.219 302.19,117.28 301.117,116.887 C300.044,116.493 298.843,116.705 297.969,117.442 C295.669,119.417 293.084,121.034 290.301,122.238 L268.886,100.832 C261.144,93.055 250.613,88.697 239.639,88.728 L229.998,88.728 C228.241,88.728 226.816,90.153 226.816,91.91 C226.816,93.667 228.241,95.092 229.998,95.092 L239.639,95.092 C245.455,95.081 251.182,96.525 256.297,99.292 L244.512,111.07 C239.472,111.543 234.003,113.723 227.966,118.726 Z" />
        </g>
        <g id="Regular-M" transform="translate(0,200)">
            <path d="M471.364,88.728 C471.364,81.699 477.062,76 484.092,76 C491.121,76 496.82,81.699 496.82,88.728 C496.82,95.757 491.121,101.456 484.092,101.456 C480.716,101.456 477.479,100.115 475.092,97.728 C472.705,95.341 471.364,92.104 471.364,88.728 Z M497.969,133.352 C485.309,143.848 476.602,139.123 466.519,133.646 C455.935,127.902 443.943,121.391 427.966,134.636 C427.081,135.359 426.651,136.501 426.841,137.628 C427.031,138.755 427.81,139.694 428.883,140.087 C429.956,140.481 431.157,140.269 432.031,139.533 C444.691,129.036 453.398,133.765 463.481,139.238 C469.491,142.5 475.95,146 483.34,146 C488.964,146 495.13,143.967 502.034,138.244 C503.387,137.121 503.574,135.115 502.451,133.762 C501.329,132.409 499.322,132.222 497.969,133.344 Z M427.966,118.73 C427.081,119.453 426.651,120.595 426.841,121.722 C427.031,122.849 427.81,123.788 428.883,124.181 C429.956,124.575 431.157,124.363 432.031,123.627 C444.691,113.134 453.398,117.859 463.481,123.332 C469.491,126.594 475.95,130.094 483.34,130.094 C488.964,130.094 495.13,128.061 502.034,122.338 C502.919,121.615 503.349,120.473 503.159,119.346 C502.969,118.219 502.19,117.28 501.117,116.887 C500.044,116.493 498.843,116.705 497.969,117.442 C495.669,119.417 493.084,121.034 490.301,122.238 L468.886,100.832 C461.144,93.055 450.613,88.697 439.639,88.728 L429.998,88.728 C428.241,88.728 426.816,90.153 426.816,91.91 C426.816,93.667 428.241,95.092 429.998,95.092 L439.639,95.092 C445.455,95.081 451.182,96.525 456.297,99.292 L444.512,111.07 C439.472,111.543 434.003,113.723 427.966,118.726 Z" />
        </g>
        <g id="Black-M" transform="translate(0,200)">
            <path d="M671.364,88.728 C671.364,81.699 677.062,76 684.092,76 C691.121,76 696.82,81.699 696.82,88.728 C696.82,95.757 691.121,101.456 684.092,101.456 C680.716,101.456 677.479,100.115 675.092,97.728 C672.705,95.341 671.364,92.104 671.364,88.728 Z M697.969,133.352 C685.309,143.848 676.602,139.123 666.519,133.646 C655.935,127.902 643.943,121.391 627.966,134.636 C627.081,135.359 626.651,136.501 626.841,137.628 C627.031,138.755 627.81,139.694 628.883,140.087 C629.956,140.481 631.157,140.269 632.031,139.533 C644.691,129.036 653.398,133.765 663.481,139.238 C669.491,142.5 675.95,146 683.34,146 C688.964,146 695.13,143.967 702.034,138.244 C703.387,137.121 703.574,135.115 702.451,133.762 C701.329,132.409 699.322,132.222 697.969,133.344 Z M627.966,118.73 C627.081,119.453 626.651,120.595 626.841,121.722 C627.031,122.849 627.81,123.788 628.883,124.181 C629.956,124.575 631.157,124.363 632.031,123.627 C644.691,113.134 653.398,117.859 663.481,123.332 C669.491,126.594 675.95,130.094 683.34,130.094 C688.964,130.094 695.13,128.061 702.034,122.338 C702.919,121.615 703.349,120.473 703.159,119.346 C702.969,118.219 702.19,117.28 701.117,116.887 C700.044,116.493 698.843,116.705 697.969,117.442 C695.669,119.417 693.084,121.034 690.301,122.238 L668.886,100.832 C661.144,93.055 650.613,88.697 639.639,88.728 L629.998,88.728 C628.241,88.728 626.816,90.153 626.816,91.91 C626.816,93.667 628.241,95.092 629.998,95.092 L639.639,95.092 C645.455,95.081 651.182,96.525 656.297,99.292 L644.512,111.07 C639.472,111.543 634.003,113.723 627.966,118.726 Z" />
        </g>
    </g>
</svg>