<?xml version="1.0" encoding="UTF-8"?>
<svg height="600" width="800" xmlns="http://www.w3.org/2000/svg" xmlns:xlink="http://www.w3.org/1999/xlink">
    <g id="Notes" font-family="LucidaGrande, 'Lucida Grande', sans-serif" font-size="13">
        <rect fill="white" height="600.0" width="800.0" x="0.0" y="0.0" />
        <g font-size="13">
            <text x="18.0" y="176.0">Small</text>
            <text x="18.0" y="376.0">Medium</text>
            <text x="18.0" y="576.0">Large</text>
        </g>
        <g font-size="9">
            <text x="250.0" y="30.0">Ultralight</text>
            <text x="450.0" y="30.0">Regular</text>
            <text x="650.0" y="30.0">Black</text>
            <text id="template-version" fill="#505050" text-anchor="end" x="785.0" y="575.0">Template v.3.0</text>
            <a href="https://github.com/swhitty/SwiftDraw">
                <text fill="#505050" text-anchor="end" x="785.0" y="590.0">https://github.com/swhitty/SwiftDraw</text>
            </a>
        </g>
    </g>
    <g id="Guides" stroke="rgb(39, 170, 225)" stroke-width="0.5">
        <path id="Capline-S" d="M18,76 l800,0" />
        <path id="H-reference" d="M85,145.755 L87.685,145.755 L113.369,79.287 L114.052,79.287 L114.052,76 L112.148,76 L85,145.755 Z M95.693,121.536 L130.996,121.536 L130.263,119.313 L96.474,119.313 L95.693,121.536 Z M139.15,145.755 L141.787,145.755 L114.638,76 L113.466,76 L113.466,79.287 L139.15,145.755 Z" stroke="none" transform="translate(0,200)" />
        <path id="Baseline-S" d="M18,146 l800,0" />
        <path id="left-margin-Ultralight-M" d="M223.438,256 l0,110" />
        <path id="right-margin-Ultralight-M" d="M306.562,256 l0,110" />
        <path id="left-margin-Regular-M" d="M423.438,256 l0,110" />
        <path id="right-margin-Regular-M" d="M506.562,256 l0,110" />
        <path id="left-margin-Black-M" d="M623.438,256 l0,110" />
        <path id="right-margin-Black-M" d="M706.562,256 l0,110" />
        <path id="Capline-M" d="M18,276 l800,0" />
        <path id="Baseline-M" d="M18,346 l800,0" />
        <path id="Capline-L" d="M18,476 l800,0" />
        <path id="Baseline-L" d="M18,546 l800,0" />
    </g>
    <g id="Symbols">
        <g id="Ultralight-M" transform="translate(0,200)">
            <path d="M273.75,81.833 L273.75,140.167 C273.75,140.94 273.443,141.682 272.896,142.229 C272.349,142.776 271.607,143.083 270.833,143.083 L262.083,143.083 C261.31,143.083 260.568,142.776 260.021,142.229 C259.474,141.682 259.167,140.94 259.167,140.167 L259.167,81.833 C259.167,81.06 259.474,80.318 260.021,79.771 C260.568,79.224 261.31,78.917 262.083,78.917 L270.833,78.917 C271.607,78.917 272.349,79.224 272.896,79.771 C273.443,80.318 273.75,81.06 273.75,81.833 Z M297.083,78.917 L288.333,78.917 C287.56,78.917 286.818,79.224 286.271,79.771 C285.724,80.318 285.417,81.06 285.417,81.833 L285.417,140.167 C285.417,140.94 285.724,141.682 286.271,142.229 C286.818,142.776 287.56,143.083 288.333,143.083 L297.083,143.083 C297.857,143.083 298.599,142.776 299.146,142.229 C299.693,141.682 300,140.94 300,140.167 L300,81.833 C300,81.06 299.693,80.318 299.146,79.771 C298.599,79.224 297.857,78.917 297.083,78.917 Z" />
            <path d="M270.833,76 L262.083,76 C260.536,76 259.052,76.615 257.959,77.709 C256.865,78.803 256.25,80.286 256.25,81.833 L256.25,140.167 C256.25,141.714 256.865,143.197 257.959,144.291 C259.052,145.385 260.536,146 262.083,146 L270.833,146 C272.38,146 273.864,145.385 274.958,144.291 C276.052,143.197 276.667,141.714 276.667,140.167 L276.667,81.833 C276.667,80.286 276.052,78.803 274.958,77.709 C273.864,76.615 272.38,76 270.833,76 Z M270.833,140.167 L262.083,140.167 L262.083,81.833 L270.833,81.833 Z M297.083,76 L288.333,76 C286.786,76 285.302,76.615 284.209,77.709 C283.115,78.803 282.5,80.286 282.5,81.833 L282.5,140.167 C282.5,141.714 283.115,143.197 284.209,144.291 C285.302,145.385 286.786,146 288.333,146 L297.083,146 C298.63,146 300.114,145.385 301.208,144.291 C302.302,143.197 302.917,141.714 302.917,140.167 L302.917,81.833 C302.917,80.286 302.302,78.803 301.208,77.709 C300.114,76.615 298.63,76 297.083,76 Z M297.083,140.167 L288.333,140.167 L288.333,81.833 L297.083,81.833 Z M250.417,111 C250.417,111.774 250.109,112.515 249.562,113.062 C249.015,113.609 248.274,113.917 247.5,113.917 L241.667,113.917 L241.667,119.75 C241.667,121.361 240.361,122.667 238.75,122.667 C237.139,122.667 235.833,121.361 235.833,119.75 L235.833,113.917 L230,113.917 C228.389,113.917 227.083,112.611 227.083,111 C227.083,109.389 228.389,108.083 230,108.083 L235.833,108.083 L235.833,102.25 C235.833,100.639 237.139,99.333 238.75,99.333 C240.361,99.333 241.667,100.639 241.667,102.25 L241.667,108.083 L247.5,108.083 C248.274,108.083 249.015,108.391 249.562,108.938 C250.109,109.485 250.417,110.226 250.417,111 Z" />
        </g>
        <g id="Regular-M" transform="translate(0,200)">
            <path d="M473.75,81.833 L473.75,140.167 C473.75,140.94 473.443,141.682 472.896,142.229 C472.349,142.776 471.607,143.083 470.833,143.083 L462.083,143.083 C461.31,143.083 460.568,142.776 460.021,142.229 C459.474,141.682 459.167,140.94 459.167,140.167 L459.167,81.833 C459.167,81.06 459.474,80.318 460.021,79.771 C460.568,79.224 461.31,78.917 462.083,78.917 L470.833,78.917 C471.607,78.917 472.349,79.224 472.896,79.771 C473.443,80.318 473.75,81.06 473.75,81.833 Z M497.083,78.917 L488.333,78.917 C487.56,78.917 486.818,79.224 486.271,79.771 C485.724,80.318 485.417,81.06 485.417,81.833 L485.417,140.167 C485.417,140.94 485.724,141.682 486.271,142.229 C486.818,142.776 487.56,143.083 488.333,143.083 L497.083,143.083 C497.857,143.083 498.599,142.776 499.146,142.229 C499.693,141.682 500,140.94 500,140.167 L500,81.833 C500,81.06 499.693,80.318 499.146,79.771 C498.599,79.224 497.857,78.917 497.083,78.917 Z" />
            <path d="M470.833,76 L462.083,76 C460.536,76 459.052,76.615 457.959,77.709 C456.865,78.803 456.25,80.286 456.25,81.833 L456.25,140.167 C456.25,141.714 456.865,143.197 457.959,144.291 C459.052,145.385 460.536,146 462.083,146 L470.833,146 C472.38,146 473.864,145.385 474.958,144.291 C476.052,143.197 476.667,141.714 476.667,140.167 L476.667,81.833 C476.667,80.286 476.052,78.803 474.958,77.709 C473.864,76.615 472.38,76 470.833,76 Z M470.833,140.167 L462.083,140.167 L462.083,81.833 L470.833,81.833 Z M497.083,76 L488.333,76 C486.786,76 485.302,76.615 484.209,77.709 C483.115,78.803 482.5,80.286 482.5,81.833 L482.5,140.167 C482.5,141.714 483.115,143.197 484.209,144.291 C485.302,145.385 486.786,146 488.333,146 L497.083,146 C498.63,146 500.114,145.385 501.208,144.291 C502.302,143.197 502.917,141.714 502.917,140.167 L502.917,81.833 C502.917,80.286 502.302,78.803 501.208,77.709 C500.114,76.615 498.63,76 497.083,76 Z M497.083,140.167 L488.333,140.167 L488.333,81.833 L497.083,81.833 Z M450.417,111 C450.417,111.774 450.109,112.515 449.562,113.062 C449.015,113.609 448.274,113.917 447.5,113.917 L441.667,113.917 L441.667,119.75 C441.667,121.361 440.361,122.667 438.75,122.667 C437.139,122.667 435.833,121.361 435.833,119.75 L435.833,113.917 L430,113.917 C428.389,113.917 427.083,112.611 427.083,111 C427.083,109.389 428.389,108.083 430,108.083 L435.833,108.083 L435.833,102.25 C435.833,100.639 437.139,99.333 438.75,99.333 C440.361,99.333 441.667,100.639 441.667,102.25 L441.667,108.083 L447.5,108.083 C448.274,108.083 449.015,108.391 449.562,108.938 C450.109,109.485 450.417,110.226 450.417,111 Z" />
        </g>
        <g id="Black-M" transform="translate(0,200)">
            <path d="M673.75,81.833 L673.75,140.167 C673.75,140.94 673.443,141.682 672.896,142.229 C672.349,142.776 671.607,143.083 670.833,143.083 L662.083,143.083 C661.31,143.083 660.568,142.776 660.021,142.229 C659.474,141.682 659.167,140.94 659.167,140.167 L659.167,81.833 C659.167,81.06 659.474,80.318 660.021,79.771 C660.568,79.224 661.31,78.917 662.083,78.917 L670.833,78.917 C671.607,78.917 672.349,79.224 672.896,79.771 C673.443,80.318 673.75,81.06 673.75,81.833 Z M697.083,78.917 L688.333,78.917 C687.56,78.917 686.818,79.224 686.271,79.771 C685.724,80.318 685.417,81.06 685.417,81.833 L685.417,140.167 C685.417,140.94 685.724,141.682 686.271,142.229 C686.818,142.776 687.56,143.083 688.333,143.083 L697.083,143.083 C697.857,143.083 698.599,142.776 699.146,142.229 C699.693,141.682 700,140.94 700,140.167 L700,81.833 C700,81.06 699.693,80.318 699.146,79.771 C698.599,79.224 697.857,78.917 697.083,78.917 Z" />
            <path d="M670.833,76 L662.083,76 C660.536,76 659.053,76.615 657.959,77.709 C656.865,78.803 656.25,80.286 656.25,81.833 L656.25,140.167 C656.25,141.714 656.865,143.197 657.959,144.291 C659.053,145.385 660.536,146 662.083,146 L670.833,146 C672.38,146 673.864,145.385 674.958,144.291 C676.052,143.197 676.667,141.714 676.667,140.167 L676.667,81.833 C676.667,80.286 676.052,78.803 674.958,77.709 C673.864,76.615 672.38,76 670.833,76 Z M670.833,140.167 L662.083,140.167 L662.083,81.833 L670.833,81.833 Z M697.083,76 L688.333,76 C686.786,76 685.303,76.615 684.209,77.709 C683.115,78.803 682.5,80.286 682.5,81.833 L682.5,140.167 C682.5,141.714 683.115,143.197 684.209,144.291 C685.303,145.385 686.786,146 688.333,146 L697.083,146 C698.63,146 700.114,145.385 701.208,144.291 C702.302,143.197 702.917,141.714 702.917,140.167 L702.917,81.833 C702.917,80.286 702.302,78.803 701.208,77.709 C700.114,76.615 698.63,76 697.083,76 Z M697.083,140.167 L688.333,140.167 L688.333,81.833 L697.083,81.833 Z M650.417,111 C650.417,111.774 650.109,112.515 649.562,113.062 C649.015,113.609 648.274,113.917 647.5,113.917 L641.667,113.917 L641.667,119.75 C641.667,121.361 640.361,122.667 638.75,122.667 C637.139,122.667 635.833,121.361 635.833,119.75 L635.833,113.917 L630,113.917 C628.389,113.917 627.083,112.611 627.083,111 C627.083,109.389 628.389,108.083 630,108.083 L635.833,108.083 L635.833,102.25 C635.833,100.639 637.139,99.333 638.75,99.333 C640.361,99.333 641.667,100.639 641.667,102.25 L641.667,108.083 L647.5,108.083 C648.274,108.083 649.015,108.391 649.562,108.938 C650.109,109.485 650.417,110.226 650.417,111 Z" />
        </g>
    </g>
</svg>