<?xml version="1.0" encoding="UTF-8"?>
<svg height="600" width="800" xmlns="http://www.w3.org/2000/svg" xmlns:xlink="http://www.w3.org/1999/xlink">
    <g id="Notes" font-family="LucidaGrande, 'Lucida Grande', sans-serif" font-size="13">
        <rect fill="white" height="600.0" width="800.0" x="0.0" y="0.0" />
        <g font-size="13">
            <text x="18.0" y="176.0">Small</text>
            <text x="18.0" y="376.0">Medium</text>
            <text x="18.0" y="576.0">Large</text>
        </g>
        <g font-size="9">
            <text x="250.0" y="30.0">Ultralight</text>
            <text x="450.0" y="30.0">Regular</text>
            <text x="650.0" y="30.0">Black</text>
            <text id="template-version" fill="#505050" text-anchor="end" x="785.0" y="575.0">Template v.3.0</text>
            <a href="https://github.com/swhitty/SwiftDraw">
                <text fill="#505050" text-anchor="end" x="785.0" y="590.0">https://github.com/swhitty/SwiftDraw</text>
            </a>
        </g>
    </g>
    <g id="Guides" stroke="rgb(39, 170, 225)" stroke-width="0.5">
        <path id="Capline-S" d="M18,76 l800,0" />
        <path id="H-reference" d="M85,145.755 L87.685,145.755 L113.369,79.287 L114.052,79.287 L114.052,76 L112.148,76 L85,145.755 Z M95.693,121.536 L130.996,121.536 L130.263,119.313 L96.474,119.313 L95.693,121.536 Z M139.15,145.755 L141.787,145.755 L114.638,76 L113.466,76 L113.466,79.287 L139.15,145.755 Z" stroke="none" transform="translate(0,200)" />
        <path id="Baseline-S" d="M18,146 l800,0" />
        <path id="left-margin-Ultralight-M" d="M231.875,256 l0,110" />
        <path id="right-margin-Ultralight-M" d="M298.125,256 l0,110" />
        <path id="left-margin-Regular-M" d="M431.875,256 l0,110" />
        <path id="right-margin-Regular-M" d="M498.125,256 l0,110" />
        <path id="left-margin-Black-M" d="M631.875,256 l0,110" />
        <path id="right-margin-Black-M" d="M698.125,256 l0,110" />
        <path id="Capline-M" d="M18,276 l800,0" />
        <path id="Baseline-M" d="M18,346 l800,0" />
        <path id="Capline-L" d="M18,476 l800,0" />
        <path id="Baseline-L" d="M18,546 l800,0" />
    </g>
    <g id="Symbols">
        <g id="Ultralight-M" transform="translate(0,200)">
            <path d="M295,86 L295,136 C295,137.326 294.473,138.598 293.536,139.536 C292.598,140.473 291.326,141 290,141 L240,141 C238.674,141 237.402,140.473 236.464,139.536 C235.527,138.598 235,137.326 235,136 L235,86 C235,84.674 235.527,83.402 236.464,82.464 C237.402,81.527 238.674,81 240,81 L290,81 C291.326,81 292.598,81.527 293.536,82.464 C294.473,83.402 295,84.674 295,86 Z" />
            <path d="M267.5,78.5 L267.5,143.5 C267.5,144.881 266.381,146 265,146 C263.619,146 262.5,144.881 262.5,143.5 L262.5,78.5 C262.5,77.119 263.619,76 265,76 C266.381,76 267.5,77.119 267.5,78.5 Z" />
        </g>
        <g id="Regular-M" transform="translate(0,200)">
            <path d="M495,86 L495,136 C495,137.326 494.473,138.598 493.536,139.536 C492.598,140.473 491.326,141 490,141 L440,141 C438.674,141 437.402,140.473 436.464,139.536 C435.527,138.598 435,137.326 435,136 L435,86 C435,84.674 435.527,83.402 436.464,82.464 C437.402,81.527 438.674,81 440,81 L490,81 C491.326,81 492.598,81.527 493.536,82.464 C494.473,83.402 495,84.674 495,86 Z" />
            <path d="M467.5,78.5 L467.5,143.5 C467.5,144.881 466.381,146 465,146 C463.619,146 462.5,144.881 462.5,143.5 L462.5,78.5 C462.5,77.119 463.619,76 465,76 C466.381,76 467.5,77.119 467.5,78.5 Z" />
        </g>
        <g id="Black-M" transform="translate(0,200)">
            <path d="M695,86 L695,136 C695,137.326 694.473,138.598 693.536,139.536 C692.598,140.473 691.326,141 690,141 L640,141 C638.674,141 637.402,140.473 636.464,139.536 C635.527,138.598 635,137.326 635,136 L635,86 C635,84.674 635.527,83.402 636.464,82.464 C637.402,81.527 638.674,81 640,81 L690,81 C691.326,81 692.598,81.527 693.536,82.464 C694.473,83.402 695,84.674 695,86 Z" />
            <path d="M667.5,78.5 L667.5,143.5 C667.5,144.881 666.381,146 665,146 C663.619,146 662.5,144.881 662.5,143.5 L662.5,78.5 C662.5,77.119 663.619,76 665,76 C666.381,76 667.5,77.119 667.5,78.5 Z" />
        </g>
    </g>
</svg>